<svg width="262" height="87" viewBox="0 0 262 87" fill="none" xmlns="http://www.w3.org/2000/svg">
<path d="M5.6 70V31.71L4.2 24.71L5.6 20.51H19.67L33.81 38.15L37.17 43.96H37.87V20.51H54.04V24.71L53.34 31.71V70H39.41L21.84 46.06H21.14V50.26L21.84 70H5.6ZM63.8422 70L62.4422 65.8L63.8422 58.8V20.44H99.8922L103.392 22.54L98.7722 34.44L92.4722 33.74H79.3822V39.34H96.6722V50.89H87.0122L79.3822 50.19V56.7H98.7722L107.102 65.52L102.972 70H63.8422ZM108.169 70L120.909 44.87L108.869 24.64V20.44H126.439L133.439 38.01H134.839L141.769 20.44H159.969L147.159 45.08L159.269 65.8V70H142.049L134.839 53.27H133.439L125.879 70H108.169ZM187.516 70.7C179.35 70.7 173.47 69.0667 169.876 65.8C166.283 62.4867 164.486 57.19 164.486 49.91V31.71L164.556 24.64L164.486 20.44H180.166V46.41C180.166 48.5567 180.33 50.47 180.656 52.15C180.983 53.7833 181.683 55.0667 182.756 56C183.83 56.9333 185.463 57.4 187.656 57.4C189.896 57.4 191.553 56.98 192.626 56.14C193.7 55.3 194.4 54.0633 194.726 52.43C195.053 50.7967 195.216 48.79 195.216 46.41V20.44H210.546V49.91C210.546 54.67 209.776 58.59 208.236 61.67C206.696 64.7033 204.246 66.9667 200.886 68.46C197.526 69.9533 193.07 70.7 187.516 70.7ZM236.783 70.7C234.217 70.7 231.673 70.4667 229.153 70C226.68 69.58 224.487 69.02 222.573 68.32C220.66 67.62 219.283 66.92 218.443 66.22V51.59C220.217 52.57 222.2 53.4567 224.393 54.25C226.587 55.0433 228.803 55.6733 231.043 56.14C233.33 56.56 235.5 56.77 237.553 56.77C240.4 56.77 241.823 56.1167 241.823 54.81C241.823 54.1567 241.52 53.62 240.913 53.2C240.353 52.7333 239.35 52.2433 237.903 51.73C236.457 51.2167 234.403 50.5633 231.743 49.77C228.663 48.79 226.027 47.7633 223.833 46.69C221.687 45.6167 220.03 44.24 218.863 42.56C217.743 40.88 217.183 38.64 217.183 35.84C217.183 30.9867 219.12 27.09 222.993 24.15C226.867 21.21 232.537 19.74 240.003 19.74C241.497 19.74 243.083 19.81 244.763 19.95C246.49 20.0433 247.867 20.1833 248.893 20.37L257.503 26.18L254.003 36.82L236.083 32.27C234.217 32.27 233.283 32.9 233.283 34.16C233.283 35.14 233.867 35.9567 235.033 36.61C236.247 37.2167 238.417 38.0567 241.543 39.13C245.697 40.53 248.987 41.9767 251.413 43.47C253.887 44.9167 255.66 46.5733 256.733 48.44C257.807 50.3067 258.343 52.5233 258.343 55.09C258.343 59.7567 256.547 63.5367 252.953 66.43C249.36 69.2767 243.97 70.7 236.783 70.7Z" fill="#92AAFF"/>
<path d="M126.5 21H109V25.5L121 45.5L133.5 54H134.5L142 70.5H159.5V66.5L147 46L134.5 38.5H133.5L126.5 21Z" fill="#1E1E1E" stroke="#60DDE5"/>
</svg>
