<svg width="150" height="31" viewBox="0 0 150 31" fill="none" xmlns="http://www.w3.org/2000/svg">
<path d="M1.28 30V7.573L0.46 3.473L1.28 1.013H9.521L17.803 11.345L19.771 14.748H20.181V1.013H29.652V3.473L29.242 7.573V30H21.083L10.792 15.978H10.382V18.438L10.792 30H1.28ZM35.3933 30L34.5733 27.54L35.3933 23.44V0.972H56.5083L58.5583 2.202L55.8523 9.172L52.1623 8.762H44.4953V12.042H54.6223V18.807H48.9643L44.4953 18.397V22.21H55.8523L60.7313 27.376L58.3123 30H35.3933ZM61.3562 30L68.8182 15.281L61.7662 3.432V0.972H72.0572L76.1572 11.263H76.9772L81.0362 0.972H91.6962L84.1932 15.404L91.2862 27.54V30H81.2002L76.9772 20.201H76.1572L71.7292 30H61.3562ZM107.831 30.41C103.048 30.41 99.6037 29.4533 97.499 27.54C95.3943 25.5993 94.342 22.497 94.342 18.233V7.573L94.383 3.432L94.342 0.972H103.526V16.183C103.526 17.4403 103.622 18.561 103.813 19.545C104.004 20.5017 104.414 21.2533 105.043 21.8C105.672 22.3467 106.628 22.62 107.913 22.62C109.225 22.62 110.195 22.374 110.824 21.882C111.453 21.39 111.863 20.6657 112.054 19.709C112.245 18.7523 112.341 17.577 112.341 16.183V0.972H121.32V18.233C121.32 21.021 120.869 23.317 119.967 25.121C119.065 26.8977 117.63 28.2233 115.662 29.098C113.694 29.9727 111.084 30.41 107.831 30.41ZM136.687 30.41C135.184 30.41 133.694 30.2733 132.218 30C130.77 29.754 129.485 29.426 128.364 29.016C127.244 28.606 126.437 28.196 125.945 27.786V19.217C126.984 19.791 128.146 20.3103 129.43 20.775C130.715 21.2397 132.013 21.6087 133.325 21.882C134.665 22.128 135.936 22.251 137.138 22.251C138.806 22.251 139.639 21.8683 139.639 21.103C139.639 20.7203 139.462 20.406 139.106 20.16C138.778 19.8867 138.191 19.5997 137.343 19.299C136.496 18.9983 135.293 18.6157 133.735 18.151C131.931 17.577 130.387 16.9757 129.102 16.347C127.845 15.7183 126.875 14.912 126.191 13.928C125.535 12.944 125.207 11.632 125.207 9.992C125.207 7.14933 126.342 4.867 128.61 3.145C130.879 1.423 134.2 0.561998 138.573 0.561998C139.448 0.561998 140.377 0.602998 141.361 0.684999C142.373 0.739665 143.179 0.821664 143.78 0.930998L148.823 4.334L146.773 10.566L136.277 7.901C135.184 7.901 134.637 8.27 134.637 9.008C134.637 9.582 134.979 10.0603 135.662 10.443C136.373 10.7983 137.644 11.2903 139.475 11.919C141.908 12.739 143.835 13.5863 145.256 14.461C146.705 15.3083 147.744 16.2787 148.372 17.372C149.001 18.4653 149.315 19.7637 149.315 21.267C149.315 24.0003 148.263 26.2143 146.158 27.909C144.054 29.5763 140.897 30.41 136.687 30.41Z" fill="#92AAFF"/>
</svg>
